<svg width="72" height="24" viewBox="0 0 72 24" fill="none" xmlns="http://www.w3.org/2000/svg">
<g filter="url(#filter0_d_10_2)">
<path d="M5.3 15.14C5.14 15.14 5.00667 15.0533 4.9 14.88C4.82 14.8 4.73333 14.6733 4.64 14.5C4.54667 14.3267 4.51333 14.0467 4.54 13.66C4.58 13.26 4.72667 12.68 4.98 11.92C5.11333 11.4133 5.22 11.0467 5.3 10.82C5.38 10.58 5.42 10.4067 5.42 10.3C5.42 10.1533 5.43333 10.0333 5.46 9.94C5.5 9.83333 5.52 9.73333 5.52 9.64C5.6 9.64 5.68 9.56667 5.76 9.42C5.84 9.27333 5.90667 9.07333 5.96 8.82C6.01333 8.59333 6.06 8.41333 6.1 8.28C6.15333 8.13333 6.18 8.03333 6.18 7.98C6.24667 7.87333 6.31333 7.70667 6.38 7.48C6.46 7.25333 6.58 6.98 6.74 6.66C6.84667 6.26 6.96667 5.84667 7.1 5.42C7.23333 4.98 7.36667 4.57333 7.5 4.2C7.64667 3.81333 7.76667 3.51333 7.86 3.3C8.00667 2.88667 8.12 2.6 8.2 2.44C8.28 2.26667 8.28 2.15333 8.2 2.1C8.10667 2.03333 8.06 1.86667 8.06 1.6C8.07333 1.32 8.2 1.08 8.44 0.88C8.58667 0.706666 8.77333 0.586666 9 0.52C9.22667 0.44 9.48667 0.4 9.78 0.4C10.0733 0.4 10.38 0.413333 10.7 0.439999C10.94 0.453333 11.1933 0.459999 11.46 0.459999C11.74 0.459999 11.9133 0.459999 11.98 0.459999C12.1 0.513333 12.2467 0.573333 12.42 0.639999C12.5933 0.706666 12.7467 0.773332 12.88 0.839999C13.0267 0.893332 13.1 0.939999 13.1 0.98C13.1 1.06 13.1267 1.11333 13.18 1.14C13.2467 1.15333 13.3133 1.16667 13.38 1.18C13.4733 1.18 13.6267 1.26667 13.84 1.44C14.0533 1.6 14.2667 1.8 14.48 2.04C14.7067 2.26667 14.8667 2.49333 14.96 2.72C15.0667 2.94667 15.1533 3.16 15.22 3.36C15.3 3.56 15.3067 3.84667 15.24 4.22C15.2267 4.42 15.1933 4.62 15.14 4.82C15.1 5.02 15.0533 5.15333 15 5.22C14.92 5.27333 14.8467 5.34 14.78 5.42C14.7133 5.5 14.68 5.57333 14.68 5.64C14.68 5.69333 14.6267 5.82667 14.52 6.04C14.4133 6.24 14.28 6.47333 14.12 6.74C13.96 6.99333 13.7867 7.24667 13.6 7.5C13.4133 7.75333 13.24 7.95333 13.08 8.1C12.9067 8.31333 12.7 8.51333 12.46 8.7C12.2333 8.88667 12.0267 9.04 11.84 9.16C11.4933 9.32 11.0933 9.47333 10.64 9.62C10.2 9.76667 9.77333 9.88667 9.36 9.98C8.94667 10.06 8.61333 10.0933 8.36 10.08C7.97333 10.1333 7.72 10.1867 7.6 10.24C7.48 10.28 7.39333 10.3933 7.34 10.58C7.27333 10.7533 7.20667 10.9333 7.14 11.12C7.08667 11.3067 7.06 11.44 7.06 11.52C7.03333 11.5733 6.97333 11.72 6.88 11.96C6.8 12.2 6.7 12.48 6.58 12.8C6.47333 13.12 6.37333 13.44 6.28 13.76C6.18667 14.08 6.11333 14.3533 6.06 14.58C6.00667 14.7667 5.89333 14.9067 5.72 15C5.56 15.0933 5.42 15.14 5.3 15.14ZM8.14 8.46C8.19333 8.51333 8.36667 8.52 8.66 8.48C8.95333 8.44 9.30667 8.34 9.72 8.18C9.98667 8.08667 10.2533 7.97333 10.52 7.84C10.8 7.70667 11.0667 7.56 11.32 7.4C11.4533 7.30667 11.5933 7.19333 11.74 7.06C11.8867 6.91333 12.0933 6.67333 12.36 6.34C12.4 6.27333 12.4667 6.14667 12.56 5.96C12.6667 5.76 12.76 5.57333 12.84 5.4C12.96 5.21333 13.08 4.94 13.2 4.58C13.32 4.20667 13.3467 3.9 13.28 3.66C13.2133 3.31333 13.08 3.02667 12.88 2.8C12.68 2.56 12.4267 2.38667 12.12 2.28C11.8267 2.22667 11.58 2.19333 11.38 2.18C11.1933 2.16667 10.9867 2.18 10.76 2.22C10.5467 2.28667 10.3933 2.38 10.3 2.5C10.22 2.62 10.1 2.87333 9.94 3.26C9.84667 3.44667 9.71333 3.70667 9.54 4.04C9.36667 4.36 9.22 4.68667 9.1 5.02C8.86 5.9 8.64667 6.57333 8.46 7.04C8.28667 7.50667 8.17333 7.81333 8.12 7.96C8.13333 8.10667 8.12667 8.21333 8.1 8.28C8.07333 8.33333 8.08667 8.39333 8.14 8.46ZM14.6108 13.66C14.5041 13.5533 14.4241 13.3933 14.3708 13.18C14.3308 12.9667 14.3174 12.76 14.3308 12.56C14.3441 12.3467 14.3774 12.1867 14.4308 12.08C14.4308 11.9733 14.4441 11.8933 14.4708 11.84C14.5108 11.7733 14.5241 11.7133 14.5108 11.66C14.4974 11.6067 14.5108 11.5133 14.5508 11.38C14.5908 11.2467 14.6308 11.12 14.6708 11C14.7641 10.7867 14.8708 10.5133 14.9908 10.18C15.1108 9.83333 15.2308 9.48667 15.3508 9.14C15.4708 8.78 15.5708 8.47333 15.6508 8.22C15.7308 7.95333 15.7774 7.79333 15.7908 7.74C15.7908 7.58 15.8974 7.49333 16.1108 7.48C16.2708 7.42667 16.4641 7.49333 16.6908 7.68C16.9174 7.86667 17.0974 8.06667 17.2308 8.28C17.3374 8.38667 17.3774 8.52667 17.3508 8.7C17.3241 8.87333 17.2374 9.12 17.0908 9.44C17.0374 9.54667 16.9708 9.72667 16.8908 9.98C16.8241 10.22 16.7774 10.42 16.7508 10.58C16.6974 10.6867 16.6308 10.84 16.5508 11.04C16.4841 11.2267 16.4241 11.4067 16.3708 11.58C16.3441 11.6467 16.3174 11.7733 16.2908 11.96C16.2641 12.1333 16.2308 12.3133 16.1908 12.5C16.1508 12.6867 16.0974 12.8333 16.0308 12.94C15.9108 13.4867 15.6974 13.8067 15.3908 13.9C15.0974 13.9933 14.8374 13.9133 14.6108 13.66ZM16.7708 5.64C16.6241 5.53333 16.5108 5.40667 16.4308 5.26C16.3641 5.1 16.3241 4.96 16.3108 4.84C16.3108 4.72 16.3241 4.64667 16.3508 4.62C16.4841 4.47333 16.5974 4.28 16.6908 4.04C16.7974 3.8 16.9108 3.58 17.0308 3.38C17.0574 3.34 17.0908 3.28667 17.1308 3.22C17.1841 3.14 17.2374 3.09333 17.2908 3.08C17.4508 2.97333 17.6708 2.98 17.9508 3.1C18.2441 3.22 18.4574 3.38667 18.5908 3.6C18.7108 3.85333 18.7441 4.11333 18.6908 4.38C18.6508 4.64667 18.5108 4.92667 18.2708 5.22C18.0708 5.48667 17.8174 5.66 17.5108 5.74C17.2041 5.80667 16.9574 5.77333 16.7708 5.64ZM19.5366 14.12C19.0832 13.9333 18.7499 13.74 18.5366 13.54C18.3366 13.3267 18.2566 13.14 18.2966 12.98C18.3232 12.9 18.3699 12.8267 18.4366 12.76C18.5032 12.6933 18.6499 12.6667 18.8766 12.68C19.1166 12.68 19.4832 12.74 19.9766 12.86C20.1232 12.86 20.2699 12.8533 20.4166 12.84C20.5632 12.8267 20.6966 12.8067 20.8166 12.78C20.9499 12.7533 21.0566 12.72 21.1366 12.68C21.2032 12.6533 21.2232 12.62 21.1966 12.58C21.1699 12.5267 21.1232 12.4733 21.0566 12.42C21.0032 12.3533 20.9432 12.3133 20.8766 12.3C20.8099 12.2733 20.7499 12.26 20.6966 12.26C20.6699 12.1933 20.6099 12.1267 20.5166 12.06C20.4366 11.9933 20.3366 11.92 20.2166 11.84C19.9232 11.6 19.6566 11.3867 19.4166 11.2C19.1766 11.0133 19.0832 10.8733 19.1366 10.78C19.1366 10.7267 19.1366 10.7 19.1366 10.7C19.1366 10.6867 19.1366 10.68 19.1366 10.68C19.0432 10.68 18.9566 10.5533 18.8766 10.3C18.7966 10.0333 18.7566 9.79333 18.7566 9.58C18.7566 9.31333 18.8099 9.04667 18.9166 8.78C19.0366 8.51333 19.1832 8.26 19.3566 8.02C19.5432 7.78 19.7299 7.56667 19.9166 7.38C20.1699 7.14 20.4366 6.90667 20.7166 6.68C21.0099 6.44 21.3232 6.22667 21.6566 6.04C22.0032 5.85333 22.3832 5.70667 22.7966 5.6C22.9832 5.56 23.1966 5.54 23.4366 5.54C23.6766 5.54 23.8499 5.57333 23.9566 5.64C24.0632 5.57333 24.1966 5.59333 24.3566 5.7C24.5166 5.79333 24.6766 5.92667 24.8366 6.1C24.9966 6.27333 25.1166 6.44667 25.1966 6.62C25.1966 6.78 25.1899 6.98 25.1766 7.22C25.1766 7.44667 25.1632 7.64667 25.1366 7.82C25.1099 7.99333 25.0499 8.08 24.9566 8.08C24.9566 8.08 24.9366 8.08667 24.8966 8.1C24.8699 8.1 24.8566 8.13333 24.8566 8.2C24.8566 8.33333 24.7566 8.48667 24.5566 8.66C24.3032 8.83333 24.0632 8.97333 23.8366 9.08C23.6099 9.18667 23.4366 9.19333 23.3166 9.1C23.2366 9.04667 23.1632 8.99333 23.0966 8.94C23.0299 8.88667 22.9699 8.82 22.9166 8.74C22.9166 8.74 22.8966 8.71333 22.8566 8.66C22.8299 8.59333 22.8166 8.53333 22.8166 8.48C22.8166 8.42667 22.8366 8.38 22.8766 8.34C22.9166 8.28667 22.9366 8.26 22.9366 8.26C23.1232 8.08667 23.2632 7.92667 23.3566 7.78C23.4632 7.63333 23.5366 7.50667 23.5766 7.4C23.6166 7.28 23.6366 7.18667 23.6366 7.12C23.6366 7.04 23.6166 6.99333 23.5766 6.98C23.5499 6.95333 23.4832 6.94 23.3766 6.94C23.3099 6.94 23.1632 6.99333 22.9366 7.1C22.7232 7.20667 22.4966 7.34 22.2566 7.5C22.0166 7.64667 21.8299 7.78 21.6966 7.9C21.6432 7.99333 21.6032 8.05333 21.5766 8.08C21.5632 8.10667 21.5299 8.12 21.4766 8.12C21.4766 8.06667 21.4432 8.07333 21.3766 8.14C21.3099 8.20667 21.2299 8.3 21.1366 8.42C21.0432 8.54 20.9499 8.66667 20.8566 8.8C20.7632 8.93333 20.6899 9.04 20.6366 9.12C20.6232 9.24 20.5899 9.35333 20.5366 9.46C20.4966 9.55333 20.4832 9.65333 20.4966 9.76C20.5099 9.89333 20.5766 10.02 20.6966 10.14C20.8166 10.26 20.9899 10.4133 21.2166 10.6C21.6832 10.9467 22.0299 11.22 22.2566 11.42C22.4966 11.62 22.6632 11.78 22.7566 11.9C22.8499 12.02 22.9099 12.14 22.9366 12.26C23.1632 12.6733 23.1899 13.0333 23.0166 13.34C22.8432 13.6333 22.5766 13.86 22.2166 14.02C22.0832 14.0867 21.8499 14.1467 21.5166 14.2C21.1832 14.2667 20.8299 14.2933 20.4566 14.28C20.0966 14.28 19.7899 14.2267 19.5366 14.12ZM28.0688 14.12C27.8821 14.0667 27.6954 13.9733 27.5088 13.84C27.3221 13.7067 27.1288 13.5533 26.9288 13.38C26.7688 13.1667 26.6554 12.9733 26.5888 12.8C26.5221 12.6133 26.4821 12.4 26.4688 12.16C26.4688 11.9067 26.4688 11.5867 26.4688 11.2C26.4688 11.04 26.4954 10.8133 26.5488 10.52C26.6154 10.2267 26.6821 9.92 26.7488 9.6C26.8288 9.28 26.9021 9 26.9688 8.76C27.0354 8.50667 27.0754 8.34 27.0888 8.26C27.1288 8.08667 27.0621 7.98667 26.8888 7.96C26.7154 7.93333 26.5221 7.92667 26.3088 7.94C26.1088 7.94 25.9754 7.92 25.9088 7.88C25.8554 7.86667 25.8288 7.8 25.8288 7.68C25.8288 7.54667 25.8288 7.48 25.8288 7.48C25.8288 7.42667 25.8021 7.39333 25.7488 7.38C25.6954 7.35333 25.6488 7.30667 25.6088 7.24C25.5821 7.18667 25.6154 7.08667 25.7088 6.94C25.8021 6.79333 25.9221 6.70667 26.0688 6.68C26.1888 6.65333 26.3688 6.63333 26.6088 6.62C26.8488 6.59333 27.0888 6.54667 27.3288 6.48C27.5821 6.4 27.7754 6.28 27.9088 6.12C28.0288 5.82667 28.1621 5.51333 28.3088 5.18C28.4554 4.83333 28.5954 4.53333 28.7288 4.28C28.8621 4.01333 28.9554 3.84667 29.0088 3.78C29.2354 3.66 29.4688 3.61333 29.7088 3.64C29.9488 3.65333 30.1354 3.76667 30.2688 3.98C30.3354 4.07333 30.3888 4.14 30.4288 4.18C30.4821 4.22 30.5021 4.28 30.4888 4.36C30.4888 4.44 30.4354 4.58667 30.3288 4.8C30.2354 5 30.0754 5.31333 29.8488 5.74C29.7821 5.87333 29.7221 5.99333 29.6688 6.1C29.6154 6.19333 29.5888 6.24 29.5888 6.24C29.6421 6.25333 29.7221 6.26 29.8288 6.26C29.9354 6.26 30.0688 6.25333 30.2288 6.24C30.3754 6.21333 30.5354 6.19333 30.7088 6.18C30.8821 6.15333 31.0354 6.15333 31.1688 6.18C31.4754 6.18 31.7021 6.26667 31.8488 6.44C31.9954 6.61333 32.0754 6.83333 32.0888 7.1C32.1154 7.24667 32.0621 7.37333 31.9288 7.48C31.7954 7.58667 31.5488 7.64 31.1888 7.64C31.0688 7.64 30.8954 7.64667 30.6688 7.66C30.4421 7.67333 30.2088 7.68667 29.9688 7.7C29.7288 7.71333 29.5221 7.73333 29.3487 7.76C29.1888 7.77333 29.1088 7.79333 29.1088 7.82C29.0688 7.84667 29.0021 7.95333 28.9088 8.14C28.8288 8.31333 28.7421 8.52667 28.6488 8.78C28.5688 9.03333 28.4954 9.27333 28.4288 9.5C28.3354 9.95333 28.2688 10.3933 28.2288 10.82C28.1888 11.2467 28.1821 11.62 28.2088 11.94C28.2488 12.2467 28.3288 12.4667 28.4488 12.6C28.5688 12.72 28.7488 12.72 28.9888 12.6C29.2421 12.4667 29.4754 12.3133 29.6888 12.14C29.9288 11.94 30.1354 11.88 30.3088 11.96C30.4821 12.0267 30.5888 12.1733 30.6288 12.4C30.6821 12.6133 30.6221 12.8467 30.4488 13.1C30.2888 13.3533 30.0621 13.5667 29.7688 13.74C29.4754 13.9133 29.1754 14.0333 28.8688 14.1C28.5621 14.18 28.2954 14.1867 28.0688 14.12ZM33.8698 13.72C33.7632 13.7467 33.6232 13.76 33.4498 13.76C33.2765 13.7467 33.1232 13.7267 32.9898 13.7C32.8698 13.66 32.8098 13.62 32.8098 13.58C32.8098 13.5133 32.7765 13.48 32.7098 13.48C32.7098 13.48 32.6365 13.4267 32.4898 13.32C32.3432 13.2 32.2098 13.1133 32.0898 13.06C31.9698 12.8733 31.8898 12.66 31.8498 12.42C31.8232 12.1667 31.9032 11.7267 32.0898 11.1C32.1032 10.6733 32.2232 10.2267 32.4498 9.76C32.6765 9.28 32.9632 8.81333 33.3098 8.36C33.6565 7.90667 34.0165 7.50667 34.3898 7.16C34.7632 6.8 35.0965 6.53333 35.3898 6.36C35.5765 6.17333 35.8232 6.07333 36.1298 6.06C36.4498 6.04667 36.7298 6.10667 36.9698 6.24C37.1032 6.30667 37.2498 6.44 37.4098 6.64C37.5698 6.84 37.7232 7.05333 37.8698 7.28C38.0165 7.49333 38.1298 7.68667 38.2098 7.86C38.2498 8.00667 38.2832 8.14 38.3098 8.26C38.3498 8.36667 38.3765 8.5 38.3898 8.66C38.4032 8.82 38.3898 9.06 38.3498 9.38C38.2832 9.62 38.2232 9.86667 38.1698 10.12C38.1298 10.36 38.1098 10.6067 38.1098 10.86C38.0832 11.1133 38.1098 11.2933 38.1898 11.4C38.2832 11.5067 38.4165 11.5133 38.5898 11.42C38.7498 11.34 38.9165 11.3333 39.0898 11.4C39.2632 11.4533 39.3832 11.56 39.4498 11.72C39.5298 11.8667 39.5098 12.06 39.3898 12.3C39.3098 12.4733 39.1832 12.64 39.0098 12.8C38.8365 12.96 38.6432 13.0933 38.4298 13.2C38.2165 13.2933 38.0098 13.34 37.8098 13.34C37.6632 13.34 37.5165 13.2867 37.3698 13.18C37.2232 13.06 37.0898 12.9 36.9698 12.7C36.8498 12.5 36.7498 12.28 36.6698 12.04L36.5498 11.58L35.8298 12.24C35.6565 12.4267 35.4832 12.6 35.3098 12.76C35.1498 12.9067 35.0498 13.0133 35.0098 13.08C34.9432 13.2 34.8098 13.3067 34.6098 13.4C34.4232 13.4933 34.1765 13.6 33.8698 13.72ZM34.4098 11.8C34.6365 11.6667 34.8298 11.5067 34.9898 11.32C35.1632 11.1333 35.3298 10.9267 35.4898 10.7C35.6498 10.46 35.8232 10.2067 36.0098 9.94C36.2365 9.63333 36.3965 9.38667 36.4898 9.2C36.5965 9.01333 36.6765 8.81333 36.7298 8.6C36.6765 8.45333 36.6032 8.3 36.5098 8.14C36.4165 7.96667 36.3232 7.87333 36.2298 7.86C36.0432 7.86 35.8165 7.97333 35.5498 8.2C35.2965 8.42667 35.0165 8.75333 34.7098 9.18C34.6565 9.24667 34.5898 9.35333 34.5098 9.5C34.4298 9.64667 34.3498 9.78667 34.2698 9.92C34.2032 10.04 34.1565 10.12 34.1298 10.16C34.0898 10.2133 34.0298 10.34 33.9498 10.54C33.8832 10.7267 33.8232 10.92 33.7698 11.12C33.7165 11.3067 33.6898 11.44 33.6898 11.52C33.6898 11.6 33.6965 11.6867 33.7098 11.78C33.7365 11.8733 33.8032 11.9333 33.9098 11.96C34.0165 11.9867 34.1832 11.9333 34.4098 11.8ZM43.253 13.82C43.0796 13.9 42.8796 13.9333 42.653 13.92C42.4263 13.9067 42.1196 13.8333 41.733 13.7C41.7063 13.7 41.613 13.64 41.453 13.52C41.293 13.4 41.133 13.26 40.973 13.1C40.813 12.94 40.7063 12.8067 40.653 12.7C40.4396 12.3933 40.373 11.94 40.453 11.34C40.5463 10.74 40.7596 10.02 41.093 9.18C41.1863 8.98 41.3263 8.72667 41.513 8.42C41.713 8.11333 41.9063 7.83333 42.093 7.58C42.293 7.31333 42.433 7.16 42.513 7.12C42.513 7.12 42.5863 7.09333 42.733 7.04C42.8796 6.98667 43.0663 6.9 43.293 6.78C43.3596 6.75333 43.473 6.72 43.633 6.68C43.8063 6.64 43.9796 6.60667 44.153 6.58C44.3396 6.54 44.4663 6.52667 44.533 6.54C44.7996 6.55333 45.073 6.65333 45.353 6.84C45.6463 7.01333 45.8863 7.22 46.073 7.46C46.2596 7.68667 46.3196 7.88667 46.253 8.06C46.253 8.08667 46.213 8.17333 46.133 8.32C46.0663 8.45333 45.993 8.59333 45.913 8.74C45.833 8.87333 45.7663 8.97333 45.713 9.04C45.6463 9.12 45.5263 9.15333 45.353 9.14C45.193 9.12667 45.0463 9.07333 44.913 8.98C44.7796 8.88667 44.7063 8.76 44.693 8.6C44.6663 8.49333 44.5663 8.39333 44.393 8.3C44.233 8.20667 44.153 8.16 44.153 8.16C44.0463 8.16 43.9063 8.26667 43.733 8.48C43.5596 8.69333 43.3796 8.93333 43.193 9.2C42.953 9.44 42.7796 9.7 42.673 9.98C42.5796 10.2467 42.513 10.5 42.473 10.74C42.4463 10.9667 42.413 11.14 42.373 11.26C42.3196 11.3933 42.3196 11.56 42.373 11.76C42.4263 11.96 42.493 12.0733 42.573 12.1C42.693 12.1133 42.853 12.1067 43.053 12.08C43.2663 12.04 43.4863 11.9933 43.713 11.94C43.953 11.8733 44.193 11.8067 44.433 11.74C44.673 11.66 44.8863 11.58 45.073 11.5C45.3263 11.34 45.5463 11.28 45.733 11.32C45.9196 11.3467 46.0596 11.3733 46.153 11.4C46.2996 11.4533 46.373 11.5667 46.373 11.74C46.373 11.9133 46.313 12.1 46.193 12.3C46.073 12.4867 45.8996 12.64 45.673 12.76C45.4596 12.8667 45.2663 12.9867 45.093 13.12C44.933 13.24 44.853 13.3333 44.853 13.4C44.7996 13.4 44.7396 13.42 44.673 13.46C44.6196 13.4867 44.573 13.4933 44.533 13.48C44.5063 13.48 44.3996 13.5 44.213 13.54C44.0263 13.58 43.833 13.6267 43.633 13.68C43.4463 13.7333 43.3196 13.78 43.253 13.82ZM48.7097 13.24C48.6164 13.2533 48.5097 13.22 48.3897 13.14C48.283 13.0467 48.183 12.9667 48.0897 12.9C47.9564 12.74 47.863 12.6 47.8097 12.48C47.7564 12.36 47.7297 12.2267 47.7297 12.08C47.7297 11.9333 47.743 11.76 47.7697 11.56C47.8364 11.3467 47.9164 11.06 48.0097 10.7C48.103 10.34 48.2164 9.95333 48.3497 9.54C48.3764 9.38 48.423 9.19333 48.4897 8.98C48.5697 8.75333 48.6497 8.54 48.7297 8.34C48.8097 8.12667 48.8697 7.96667 48.9097 7.86C49.003 7.52667 49.0964 7.20667 49.1897 6.9C49.2964 6.59333 49.423 6.24 49.5697 5.84C49.7164 5.44 49.8964 4.93333 50.1097 4.32C50.403 3.52 50.623 2.92 50.7697 2.52C50.9164 2.12 51.023 1.83333 51.0897 1.66C51.1564 1.48667 51.203 1.34667 51.2297 1.24C51.2297 1.13333 51.303 1.03333 51.4497 0.939999C51.6097 0.833333 51.7497 0.78 51.8697 0.78C52.0564 0.793333 52.2364 0.906666 52.4097 1.12C52.583 1.32 52.703 1.56667 52.7697 1.86C52.8364 2.14 52.7897 2.41333 52.6297 2.68C52.4164 3.16 52.203 3.7 51.9897 4.3C51.7897 4.88667 51.5897 5.47333 51.3897 6.06C51.1897 6.64667 50.9897 7.18667 50.7897 7.68C50.7764 7.74667 50.7297 7.86 50.6497 8.02C50.583 8.18 50.523 8.31333 50.4697 8.42C50.4164 8.52667 50.363 8.62667 50.3097 8.72C50.2697 8.81333 50.2497 8.86 50.2497 8.86C50.2364 8.94 50.2097 9.05333 50.1697 9.2C50.1297 9.34667 50.0897 9.47333 50.0497 9.58C50.0364 9.64667 50.0164 9.73333 49.9897 9.84C49.963 9.94667 49.943 10.0533 49.9297 10.16C49.9964 10.08 50.0897 9.98667 50.2097 9.88C50.3297 9.76 50.483 9.61333 50.6697 9.44C50.883 9.25333 51.0697 9.09333 51.2297 8.96C51.3897 8.82667 51.5497 8.70667 51.7097 8.6C51.8564 8.49333 51.9897 8.39333 52.1097 8.3C52.243 8.20667 52.3097 8.16 52.3097 8.16C52.3364 8.12 52.363 8.07333 52.3897 8.02C52.4297 7.96667 52.4697 7.93333 52.5097 7.92C52.5364 7.89333 52.583 7.86 52.6497 7.82C52.7164 7.76667 52.783 7.71333 52.8497 7.66C52.9697 7.58 53.0964 7.51333 53.2297 7.46C53.363 7.40667 53.503 7.36667 53.6497 7.34C53.7964 7.31333 53.9364 7.3 54.0697 7.3C54.2297 7.3 54.3964 7.36667 54.5697 7.5C54.743 7.62 54.903 7.79333 55.0497 8.02C55.183 8.19333 55.263 8.4 55.2897 8.64C55.3297 8.86667 55.3364 9.17333 55.3097 9.56C55.3097 9.66667 55.2764 9.86667 55.2097 10.16C55.1564 10.4533 55.1164 10.6733 55.0897 10.82L54.9097 11.5H55.0697C55.2164 11.4467 55.3564 11.44 55.4897 11.48C55.6364 11.52 55.7097 11.54 55.7097 11.54C55.7764 11.58 55.8364 11.6267 55.8897 11.68C55.9564 11.7333 56.0164 11.7733 56.0697 11.8C56.1497 11.9067 56.1364 12.06 56.0297 12.26C55.923 12.46 55.803 12.6 55.6697 12.68C55.3497 12.8933 55.063 13.0267 54.8097 13.08C54.5697 13.1333 54.3164 13.0867 54.0497 12.94C53.7964 12.7667 53.623 12.56 53.5297 12.32C53.4497 12.08 53.4164 11.7533 53.4297 11.34C53.483 10.7533 53.5164 10.3333 53.5297 10.08C53.543 9.81333 53.4764 9.68 53.3297 9.68C53.1697 9.68 52.9497 9.76 52.6697 9.92C52.403 10.0667 52.103 10.2733 51.7697 10.54C51.4364 10.7933 51.103 11.08 50.7697 11.4C50.4497 11.7067 50.163 12.02 49.9097 12.34C49.7497 12.54 49.5764 12.74 49.3897 12.94C49.203 13.1267 48.9764 13.2267 48.7097 13.24ZM58.0028 13.34C57.9495 13.34 57.8361 13.3 57.6628 13.22C57.4895 13.14 57.4028 13.1 57.4028 13.1C57.4028 13.0467 57.3828 12.98 57.3428 12.9C57.3161 12.82 57.3028 12.7533 57.3028 12.7C57.2095 12.6467 57.1161 12.56 57.0228 12.44C56.9295 12.32 56.9095 12.1867 56.9628 12.04C57.0428 11.8933 57.1495 11.6733 57.2828 11.38C57.4295 11.0733 57.5828 10.7333 57.7428 10.36C57.9161 9.97333 58.0761 9.6 58.2228 9.24C58.3695 8.88 58.4961 8.57333 58.6028 8.32C58.7095 8.05333 58.7695 7.89333 58.7828 7.84C58.7828 7.78667 58.7895 7.69333 58.8028 7.56C58.8295 7.42667 58.9161 7.31333 59.0628 7.22C59.2361 7.1 59.4161 7.09333 59.6028 7.2C59.7895 7.30667 59.9495 7.49333 60.0828 7.76C60.2161 8.01333 60.2828 8.31333 60.2828 8.66C60.2828 8.75333 60.2161 8.99333 60.0828 9.38C59.9495 9.75333 59.7695 10.2 59.5428 10.72C59.3295 11.24 59.0895 11.7667 58.8228 12.3C58.6228 12.6867 58.4695 12.96 58.3628 13.12C58.2695 13.2667 58.1495 13.34 58.0028 13.34ZM60.7228 5.68C60.5628 5.68 60.3695 5.60667 60.1428 5.46C59.9295 5.31333 59.7361 5.12667 59.5628 4.9C59.3895 4.67333 59.3028 4.43333 59.3028 4.18C59.3028 4.11333 59.3628 3.99333 59.4828 3.82C59.6028 3.63333 59.7161 3.45333 59.8228 3.28C59.9428 3.10667 60.0028 3.00667 60.0028 2.98C60.1095 2.98 60.2361 3 60.3828 3.04C60.5295 3.08 60.6495 3.12667 60.7428 3.18C60.8895 3.51333 61.0828 3.8 61.3228 4.04C61.5628 4.26667 61.6828 4.52667 61.6828 4.82C61.6828 5.11333 61.6095 5.33333 61.4628 5.48C61.3161 5.61333 61.0695 5.68 60.7228 5.68ZM62.6686 13.86C62.4953 13.86 62.3553 13.8267 62.2486 13.76C62.1553 13.6933 62.0353 13.6 61.8886 13.48C61.6353 13.2133 61.4286 12.9267 61.2686 12.62C61.1219 12.3133 61.0686 12.0467 61.1086 11.82C61.1486 11.7133 61.1619 11.6133 61.1486 11.52C61.1486 11.4133 61.1486 11.36 61.1486 11.36C61.0819 11.2933 61.0619 11.2533 61.0886 11.24C61.1153 11.2133 61.1419 11.1733 61.1686 11.12C61.2486 11.12 61.2753 11.0467 61.2486 10.9C61.2219 10.7933 61.2619 10.5667 61.3686 10.22C61.4886 9.86 61.6486 9.52 61.8486 9.2C61.9286 9.06667 62.0486 8.89333 62.2086 8.68C62.3686 8.45333 62.5419 8.23333 62.7286 8.02C62.9286 7.79333 63.1086 7.61333 63.2686 7.48C63.6019 7.2 63.9086 6.97333 64.1886 6.8C64.4819 6.62667 64.7753 6.50667 65.0686 6.44C65.3619 6.37333 65.6619 6.34 65.9686 6.34C66.2886 6.34 66.5486 6.44667 66.7486 6.66C67.0553 6.79333 67.2686 6.97333 67.3886 7.2C67.5219 7.42667 67.6086 7.72 67.6486 8.08C67.6886 8.48 67.6486 8.97333 67.5286 9.56C67.4086 10.1333 67.0819 10.8 66.5486 11.56C66.2153 12.04 65.8886 12.4133 65.5686 12.68C65.2486 12.9467 64.8953 13.1933 64.5086 13.42C64.2286 13.6067 63.9286 13.72 63.6086 13.76C63.2886 13.8 62.9753 13.8333 62.6686 13.86ZM64.7086 11.42C65.0019 11.1667 65.2086 10.8867 65.3286 10.58C65.4619 10.2733 65.6019 9.91333 65.7486 9.5C65.8019 9.42 65.8353 9.28667 65.8486 9.1C65.8753 8.91333 65.8819 8.73333 65.8686 8.56C65.8553 8.37333 65.8086 8.26667 65.7286 8.24C65.6086 8.14667 65.4886 8.12667 65.3686 8.18C65.2486 8.22 65.0953 8.30667 64.9086 8.44C64.5086 8.77333 64.1353 9.16 63.7886 9.6C63.4553 10.0267 63.2219 10.5533 63.0886 11.18C63.0486 11.5133 63.0819 11.7667 63.1886 11.94C63.3086 12.1 63.4953 12.1467 63.7486 12.08C64.0153 12 64.3353 11.78 64.7086 11.42Z" fill="#696956"/>
</g>
<defs>
<filter id="filter0_d_10_2" x="0.5" y="0.4" width="71.2086" height="22.74" filterUnits="userSpaceOnUse" color-interpolation-filters="sRGB">
<feFlood flood-opacity="0" result="BackgroundImageFix"/>
<feColorMatrix in="SourceAlpha" type="matrix" values="0 0 0 0 0 0 0 0 0 0 0 0 0 0 0 0 0 0 127 0" result="hardAlpha"/>
<feOffset dy="4"/>
<feGaussianBlur stdDeviation="2"/>
<feComposite in2="hardAlpha" operator="out"/>
<feColorMatrix type="matrix" values="0 0 0 0 0 0 0 0 0 0 0 0 0 0 0 0 0 0 0.25 0"/>
<feBlend mode="normal" in2="BackgroundImageFix" result="effect1_dropShadow_10_2"/>
<feBlend mode="normal" in="SourceGraphic" in2="effect1_dropShadow_10_2" result="shape"/>
</filter>
</defs>
</svg>
